<svg width="25" height="16" viewBox="0 0 25 16" fill="none" xmlns="http://www.w3.org/2000/svg">
<path d="M12.5001 0C9.16672 0 7.08317 1.6763 6.24994 5.02889C7.50002 3.35236 8.95841 2.72384 10.6251 3.14309C11.5759 3.38208 12.2556 4.076 13.008 4.84412C14.2335 6.09498 15.6519 7.54322 18.7501 7.54322C22.0835 7.54322 24.1668 5.86692 25 2.51433C23.7502 4.19086 22.2918 4.81939 20.6251 4.40013C19.6741 4.16114 18.9945 3.46722 18.2422 2.6991C17.0164 1.44824 15.5983 0 12.5001 0ZM6.24994 7.54322C2.91678 7.54322 0.833231 9.21952 0 12.5721C1.25008 10.8956 2.70824 10.2671 4.37493 10.6863C5.32592 10.9253 6.00569 11.6192 6.75782 12.3871C7.98355 13.6384 9.40198 15.0862 12.5001 15.0862C15.8333 15.0862 17.9166 13.4101 18.7501 10.0576C17.5 11.7341 16.0416 12.3626 14.3751 11.9434C13.4241 11.7044 12.7444 11.0104 11.992 10.2423C10.7665 8.99146 9.34807 7.54322 6.24994 7.54322V7.54322Z" fill="url(#paint0_linear)"/>
<defs>
<linearGradient id="paint0_linear" x1="-0.6945" y1="4.82759" x2="20.9586" y2="17.2411" gradientUnits="userSpaceOnUse">
<stop stop-color="#2298BD"/>
<stop offset="1" stop-color="#0ED7B5"/>
</linearGradient>
</defs>
</svg>
