<?xml version="1.0" standalone="no"?>
<!DOCTYPE svg PUBLIC "-//W3C//DTD SVG 20010904//EN"
 "http://www.w3.org/TR/2001/REC-SVG-20010904/DTD/svg10.dtd">
<svg version="1.0" xmlns="http://www.w3.org/2000/svg"
 width="700.000000pt" height="700.000000pt" viewBox="0 0 700.000000 700.000000"
 preserveAspectRatio="xMidYMid meet">
<metadata>
Created by potrace 1.11, written by Peter Selinger 2001-2013
</metadata>
<g transform="translate(0.000000,700.000000) scale(0.100000,-0.100000)"
fill="#000000" stroke="none">
<path d="M835 6753 c-236 -44 -427 -156 -567 -331 -84 -106 -159 -261 -174
-362 -3 -19 -9 -52 -14 -73 -12 -56 -4 -243 13 -317 25 -107 74 -217 191 -433
37 -69 104 -195 191 -362 143 -274 170 -325 210 -400 23 -44 73 -138 110 -210
37 -71 82 -157 100 -190 18 -33 63 -118 100 -190 75 -144 255 -486 320 -610
23 -44 75 -143 115 -220 40 -77 90 -171 110 -210 37 -69 93 -175 189 -357 26
-51 79 -151 116 -223 37 -71 85 -161 105 -200 21 -38 66 -124 100 -190 35 -66
82 -156 105 -200 41 -78 79 -150 240 -460 43 -82 81 -154 85 -160 4 -5 60
-113 125 -240 139 -269 175 -327 266 -416 113 -111 250 -189 407 -231 115 -31
326 -31 440 0 163 44 305 125 418 240 86 85 122 141 239 367 54 105 112 217
130 250 36 67 130 247 225 430 35 66 105 201 158 300 52 99 119 227 150 285
30 58 76 146 102 195 26 50 96 182 155 295 59 113 127 241 150 285 23 44 69
132 102 195 33 63 84 160 113 215 29 55 79 152 112 215 34 63 82 156 108 205
26 50 98 187 160 305 124 236 203 388 260 495 20 39 68 129 105 200 37 72 84
162 105 200 21 39 77 147 125 240 48 94 91 175 95 180 27 36 142 282 159 340
29 99 32 118 36 230 3 89 -5 157 -30 275 -12 56 -92 219 -137 279 -138 188
-358 325 -574 360 -140 22 -337 4 -460 -42 -205 -76 -378 -226 -480 -413 -37
-70 -126 -239 -202 -384 -35 -69 -77 -147 -92 -175 -15 -27 -62 -117 -105
-200 -43 -82 -90 -172 -105 -200 -15 -27 -60 -113 -100 -190 -40 -77 -92 -176
-115 -220 -23 -44 -68 -129 -100 -190 -32 -60 -77 -146 -100 -190 -23 -44 -70
-134 -105 -200 -35 -66 -79 -151 -100 -190 -20 -38 -74 -142 -120 -230 -45
-88 -86 -164 -90 -170 -4 -5 -43 -80 -87 -165 -158 -304 -201 -386 -242 -460
-23 -41 -49 -92 -57 -112 -19 -44 -25 -46 -40 -15 -5 12 -35 69 -66 127 -31
58 -82 155 -113 215 -83 159 -156 298 -207 395 -102 193 -148 281 -205 390
-115 220 -166 315 -208 395 -24 44 -73 139 -110 210 -37 72 -86 166 -110 210
-23 44 -67 127 -97 185 -31 58 -76 143 -100 190 -52 97 -142 269 -236 450 -35
69 -77 148 -92 175 -15 28 -62 118 -105 200 -43 83 -94 175 -113 205 -129 203
-343 347 -586 395 -63 12 -252 17 -301 8z"/>
</g>
</svg>
